0
SECTION
2
HEADER
9
$INSUNITS
70
4
0
ENDSEC
0
SECTION
2
TABLES
0
TABLE
2
LTYPE
0
LTYPE
72
65
70
64
2
CONTINUOUS
3
______
73
0
40
0
0
ENDTAB
0
TABLE
2
LAYER
0
ENDTAB
0
ENDSEC
0
SECTION
2
ENTITIES
0
LINE
8
0
10
-4.3532057
20
11.9603344
11
11.9603344
21
4.3532057
0
LINE
8
0
10
11.9603344
20
4.3532057
11
4.3532057
21
-11.9603344
0
LINE
8
0
10
4.3532057
20
-11.9603344
11
-11.9603344
21
-4.3532057
0
LINE
8
0
10
-11.9603344
20
-4.3532057
11
-4.3532057
21
11.9603344
0
LINE
8
0
10
3.6765413
20
29.1801824
11
19.9900814
21
21.5730537
0
LINE
8
0
10
19.9900814
20
21.5730537
11
12.3829527
21
5.2595136
0
LINE
8
0
10
12.3829527
20
5.2595136
11
-3.9305874
21
12.8666423
0
LINE
8
0
10
-3.9305874
20
12.8666423
11
3.6765413
21
29.1801824
0
LINE
8
0
10
12.8666423
20
3.9305874
11
29.1801824
21
-3.6765413
0
LINE
8
0
10
29.1801824
20
-3.6765413
11
21.5730537
21
-19.9900814
0
LINE
8
0
10
21.5730537
20
-19.9900814
11
5.2595136
21
-12.3829527
0
LINE
8
0
10
5.2595136
20
-12.3829527
11
12.8666423
21
3.9305874
0
LINE
8
0
10
20.8963893
20
21.1504354
11
37.2099294
21
13.5433067
0
LINE
8
0
10
37.2099294
20
13.5433067
11
29.6028007
21
-2.7702334
0
LINE
8
0
10
29.6028007
20
-2.7702334
11
13.2892606
21
4.8368953
0
LINE
8
0
10
13.2892606
20
4.8368953
11
20.8963893
21
21.1504354
0
LINE
8
0
10
28.9261362
20
38.3702834
11
45.2396763
21
30.7631547
0
LINE
8
0
10
45.2396763
20
30.7631547
11
37.6325476
21
14.4496146
0
LINE
8
0
10
37.6325476
20
14.4496146
11
21.3190075
21
22.0567433
0
LINE
8
0
10
21.3190075
20
22.0567433
11
28.9261362
21
38.3702834
0
LINE
8
0
10
30.0864902
20
-4.0991595
11
46.4000303
21
-11.7062882
0
LINE
8
0
10
46.4000303
20
-11.7062882
11
38.7929016
21
-28.0198283
0
LINE
8
0
10
38.7929016
20
-28.0198283
11
22.4793615
21
-20.4126996
0
LINE
8
0
10
22.4793615
20
-20.4126996
11
30.0864902
21
-4.0991595
0
LINE
8
0
10
38.1162372
20
13.1206885
11
54.4297773
21
5.5135598
0
LINE
8
0
10
54.4297773
20
5.5135598
11
46.8226486
21
-10.7999803
0
LINE
8
0
10
46.8226486
20
-10.7999803
11
30.5091085
21
-3.1928516
0
LINE
8
0
10
30.5091085
20
-3.1928516
11
38.1162372
21
13.1206885
0
LINE
8
0
10
46.1459841
20
30.3405365
11
62.4595242
21
22.7334078
0
LINE
8
0
10
62.4595242
20
22.7334078
11
54.8523955
21
6.4198677
0
LINE
8
0
10
54.8523955
20
6.4198677
11
38.5388554
21
14.0269964
0
LINE
8
0
10
38.5388554
20
14.0269964
11
46.1459841
21
30.3405365
0
LINE
8
0
10
47.3063382
20
-12.1289065
11
63.6198783
21
-19.7360352
0
LINE
8
0
10
63.6198783
20
-19.7360352
11
56.0127496
21
-36.0495753
0
LINE
8
0
10
56.0127496
20
-36.0495753
11
39.6992095
21
-28.4424466
0
LINE
8
0
10
39.6992095
20
-28.4424466
11
47.3063382
21
-12.1289065
0
LINE
8
0
10
55.3360852
20
5.0909415
11
71.6496253
21
-2.5161872
0
LINE
8
0
10
71.6496253
20
-2.5161872
11
64.0424966
21
-18.8297273
0
LINE
8
0
10
64.0424966
20
-18.8297273
11
47.7289565
21
-11.2225986
0
LINE
8
0
10
47.7289565
20
-11.2225986
11
55.3360852
21
5.0909415
0
LINE
8
0
10
48.4176118
20
-54.2372414
11
59.2502822
21
-68.6126806
0
LINE
8
0
10
59.2502822
20
-68.6126806
11
44.874843
21
-79.445351
0
LINE
8
0
10
44.874843
20
-79.445351
11
34.0421726
21
-65.0699118
0
LINE
8
0
10
34.0421726
20
-65.0699118
11
48.4176118
21
-54.2372414
0
LINE
8
0
10
59.8520974
20
-69.4113161
11
70.6847678
21
-83.7867553
0
LINE
8
0
10
70.6847678
20
-83.7867553
11
56.3093286
21
-94.6194257
0
LINE
8
0
10
56.3093286
20
-94.6194257
11
45.4766582
21
-80.2439865
0
LINE
8
0
10
45.4766582
20
-80.2439865
11
59.8520974
21
-69.4113161
0
LINE
8
0
10
184.0991596
20
4.3532057
11
200.4126997
21
11.9603344
0
LINE
8
0
10
200.4126997
20
11.9603344
11
208.0198284
21
-4.3532057
0
LINE
8
0
10
208.0198284
20
-4.3532057
11
191.7062883
21
-11.9603344
0
LINE
8
0
10
191.7062883
20
-11.9603344
11
184.0991596
21
4.3532057
0
LINE
8
0
10
176.0694126
20
21.5730537
11
192.3829527
21
29.1801824
0
LINE
8
0
10
192.3829527
20
29.1801824
11
199.9900814
21
12.8666423
0
LINE
8
0
10
199.9900814
20
12.8666423
11
183.6765413
21
5.2595136
0
LINE
8
0
10
183.6765413
20
5.2595136
11
176.0694126
21
21.5730537
0
LINE
8
0
10
166.8793116
20
-3.6765413
11
183.1928517
21
3.9305874
0
LINE
8
0
10
183.1928517
20
3.9305874
11
190.7999804
21
-12.3829527
0
LINE
8
0
10
190.7999804
20
-12.3829527
11
174.4864403
21
-19.9900814
0
LINE
8
0
10
174.4864403
20
-19.9900814
11
166.8793116
21
-3.6765413
0
LINE
8
0
10
158.8495646
20
13.5433067
11
175.1631047
21
21.1504354
0
LINE
8
0
10
175.1631047
20
21.1504354
11
182.7702334
21
4.8368953
0
LINE
8
0
10
182.7702334
20
4.8368953
11
166.4566933
21
-2.7702334
0
LINE
8
0
10
166.4566933
20
-2.7702334
11
158.8495646
21
13.5433067
0
LINE
8
0
10
150.8198177
20
30.7631547
11
167.1333578
21
38.3702834
0
LINE
8
0
10
167.1333578
20
38.3702834
11
174.7404865
21
22.0567433
0
LINE
8
0
10
174.7404865
20
22.0567433
11
158.4269464
21
14.4496146
0
LINE
8
0
10
158.4269464
20
14.4496146
11
150.8198177
21
30.7631547
0
LINE
8
0
10
149.6594637
20
-11.7062882
11
165.9730038
21
-4.0991595
0
LINE
8
0
10
165.9730038
20
-4.0991595
11
173.5801325
21
-20.4126996
0
LINE
8
0
10
173.5801325
20
-20.4126996
11
157.2665924
21
-28.0198283
0
LINE
8
0
10
157.2665924
20
-28.0198283
11
149.6594637
21
-11.7062882
0
LINE
8
0
10
141.6297167
20
5.5135598
11
157.9432568
21
13.1206885
0
LINE
8
0
10
157.9432568
20
13.1206885
11
165.5503855
21
-3.1928516
0
LINE
8
0
10
165.5503855
20
-3.1928516
11
149.2368454
21
-10.7999803
0
LINE
8
0
10
149.2368454
20
-10.7999803
11
141.6297167
21
5.5135598
0
LINE
8
0
10
133.5999698
20
22.7334078
11
149.9135099
21
30.3405365
0
LINE
8
0
10
149.9135099
20
30.3405365
11
157.5206386
21
14.0269964
0
LINE
8
0
10
157.5206386
20
14.0269964
11
141.2070985
21
6.4198677
0
LINE
8
0
10
141.2070985
20
6.4198677
11
133.5999698
21
22.7334078
0
LINE
8
0
10
132.4396157
20
-19.7360352
11
148.7531558
21
-12.1289065
0
LINE
8
0
10
148.7531558
20
-12.1289065
11
156.3602845
21
-28.4424466
0
LINE
8
0
10
156.3602845
20
-28.4424466
11
140.0467444
21
-36.0495753
0
LINE
8
0
10
140.0467444
20
-36.0495753
11
132.4396157
21
-19.7360352
0
LINE
8
0
10
124.4098687
20
-2.5161872
11
140.7234088
21
5.0909415
0
LINE
8
0
10
140.7234088
20
5.0909415
11
148.3305375
21
-11.2225986
0
LINE
8
0
10
148.3305375
20
-11.2225986
11
132.0169974
21
-18.8297273
0
LINE
8
0
10
132.0169974
20
-18.8297273
11
124.4098687
21
-2.5161872
0
LINE
8
0
10
136.8092118
20
-68.6126806
11
147.6418822
21
-54.2372414
0
LINE
8
0
10
147.6418822
20
-54.2372414
11
162.0173214
21
-65.0699118
0
LINE
8
0
10
162.0173214
20
-65.0699118
11
151.184651
21
-79.445351
0
LINE
8
0
10
151.184651
20
-79.445351
11
136.8092118
21
-68.6126806
0
LINE
8
0
10
125.3747262
20
-83.7867553
11
136.2073966
21
-69.4113161
0
LINE
8
0
10
136.2073966
20
-69.4113161
11
150.5828358
21
-80.2439865
0
LINE
8
0
10
150.5828358
20
-80.2439865
11
139.7501654
21
-94.6194257
0
LINE
8
0
10
139.7501654
20
-94.6194257
11
125.3747262
21
-83.7867553
0
ENDSEC
0
EOF