<svg width="219.98mm" height="132.99mm" viewBox="0 0 219.98 132.99" xmlns="http://www.w3.org/2000/svg"><g id="svgGroup" stroke-linecap="round" fill-rule="evenodd" font-size="9pt" stroke="#000" stroke-width="0.25mm" fill="none" style="stroke:#000;stroke-width:0.25mm;fill:none"><path d="M 60.378 92.608 L 71.211 106.983 L 56.835 117.816 L 46.003 103.44 L 60.378 92.608 Z M 71.812 107.782 L 82.645 122.157 L 68.27 132.99 L 57.437 118.614 L 71.812 107.782 Z M 148.77 106.983 L 159.602 92.608 L 173.978 103.44 L 163.145 117.816 L 148.77 106.983 Z M 137.335 122.157 L 148.168 107.782 L 162.543 118.614 L 151.71 132.99 L 137.335 122.157 Z M 40.886 0 L 57.2 7.607 L 49.593 23.921 L 33.279 16.314 L 40.886 0 Z M 7.607 26.41 L 23.921 34.017 L 16.314 50.331 L 0 42.723 L 7.607 26.41 Z M 15.637 9.19 L 31.95 16.797 L 24.343 33.111 L 8.03 25.504 L 15.637 9.19 Z M 24.827 34.44 L 41.141 42.047 L 33.533 58.36 L 17.22 50.753 L 24.827 34.44 Z M 32.857 17.22 L 49.17 24.827 L 41.563 41.141 L 25.25 33.533 L 32.857 17.22 Z M 42.047 42.469 L 58.36 50.077 L 50.753 66.39 L 34.44 58.783 L 42.047 42.469 Z M 50.077 25.25 L 66.39 32.857 L 58.783 49.17 L 42.469 41.563 L 50.077 25.25 Z M 58.106 8.03 L 74.42 15.637 L 66.813 31.95 L 50.499 24.343 L 58.106 8.03 Z M 59.267 50.499 L 75.58 58.106 L 67.973 74.42 L 51.66 66.813 L 59.267 50.499 Z M 67.296 33.279 L 83.61 40.886 L 76.003 57.2 L 59.689 49.593 L 67.296 33.279 Z M 162.78 7.607 L 179.094 0 L 186.701 16.314 L 170.387 23.921 L 162.78 7.607 Z M 196.059 34.017 L 212.373 26.41 L 219.98 42.723 L 203.667 50.331 L 196.059 34.017 Z M 188.03 16.797 L 204.343 9.19 L 211.95 25.504 L 195.637 33.111 L 188.03 16.797 Z M 178.84 42.047 L 195.153 34.44 L 202.76 50.753 L 186.447 58.36 L 178.84 42.047 Z M 170.81 24.827 L 187.123 17.22 L 194.731 33.533 L 178.417 41.141 L 170.81 24.827 Z M 161.62 50.077 L 177.933 42.469 L 185.54 58.783 L 169.227 66.39 L 161.62 50.077 Z M 153.59 32.857 L 169.904 25.25 L 177.511 41.563 L 161.197 49.17 L 153.59 32.857 Z M 145.56 15.637 L 161.874 8.03 L 169.481 24.343 L 153.167 31.95 L 145.56 15.637 Z M 144.4 58.106 L 160.713 50.499 L 168.321 66.813 L 152.007 74.42 L 144.4 58.106 Z M 136.37 40.886 L 152.684 33.279 L 160.291 49.593 L 143.977 57.2 L 136.37 40.886 Z" vector-effect="non-scaling-stroke"/></g></svg>